# xmcd
#
# Track frame offsets:
#	150
#	7271
#	57183
#	105231
#	155683
#	174510
#	212112
#	243315
#	282044
#	306845
#	313214
#
# Disc length: 4714 seconds
#
# Revision: 1
# Processed by: cddbd v1.5.2PL0 Copyright (c) Steve Scherf et al.
# Submitted via: audiograbber 1.83.01
#
DISCID=9412680b
DTITLE=Grateful Dead - 78-06-04 Campus Stadium, U.C.S.B., Santa Barbara CA
DYEAR=1900
DGENRE=
TTITLE0=Stage Banter
TTITLE1=Estimated Prophet
TTITLE2=Eyes Of The World
TTITLE3=Drums
TTITLE4=Space
TTITLE5=Not Fade Away
TTITLE6=Going Down The Road Feeling Bad
TTITLE7=Around and Around
TTITLE8=US Blues
TTITLE9=Stage Banter
TTITLE10=Sugar Magnolia
EXTD=
EXTT0=
EXTT1=
EXTT2=
EXTT3=
EXTT4=
EXTT5=
EXTT6=
EXTT7=
EXTT8=
EXTT9=
EXTT10=
PLAYORDER=
